<svg xmlns="http://www.w3.org/2000/svg" width="24" height="24" viewBox="0 0 24 24" fill="none">
  <path d="M2.40359 7.0606L12 11.8582L21.5964 7.0606C21.5609 6.44914 21.2929 5.87439 20.8474 5.45408C20.4019 5.03376 19.8125 4.79969 19.2 4.7998H4.79999C4.1875 4.79969 3.59813 5.03376 3.15261 5.45408C2.70708 5.87439 2.43912 6.44914 2.40359 7.0606Z" fill="#F56565"/>
  <path d="M21.6 9.7417L12 14.5417L2.39999 9.7417V16.8001C2.39999 17.4366 2.65285 18.0471 3.10294 18.4972C3.55302 18.9472 4.16347 19.2001 4.79999 19.2001H19.2C19.8365 19.2001 20.447 18.9472 20.8971 18.4972C21.3471 18.0471 21.6 17.4366 21.6 16.8001V9.7417Z" fill="#F56565"/>
</svg>